<svg width="784" height="773" viewBox="0 0 784 773" fill="none" xmlns="http://www.w3.org/2000/svg">
<path d="M275 2.00001L107.731 3.76308M275 2.00001L376.559 385.68M275 2.00001H2M425.881 559.484L376.559 385.68M425.881 559.484C464.404 451.91 495.698 366.326 526.991 280.743M425.881 559.484L526.991 280.743M628.102 2.00001C568.5 1.99998 565.627 2.00001 509.729 2.00001M628.102 2.00001H781L503.153 771H322.305M628.102 2.00001L526.991 280.743M628.102 2.00001H509.729M628.102 2.00001C589.579 109.575 558.285 195.159 526.991 280.743M322.305 771L107.731 3.76308M322.305 771L212.153 731.648L2 2.00001M107.731 3.76308L2 2.00001M509.729 2.00001C509.729 2.00001 424.57 264.979 376.559 385.68M509.729 2.00001C509.729 2.00001 424.543 265.046 376.559 385.68" stroke="black" stroke-width="3"/>
</svg>
